<svg width="16" height="16" viewBox="0 0 16 16" fill="none" xmlns="http://www.w3.org/2000/svg">
<path d="M6.65625 12.7188C3.3125 12.7188 0.5625 10 0.5625 6.625C0.5625 3.28125 3.28125 0.53125 6.65625 0.53125C10.0312 0.53125 12.75 3.25 12.75 6.625C12.7188 10 10 12.7188 6.65625 12.7188ZM6.65625 1.4375C3.78125 1.4375 1.4375 3.78125 1.4375 6.65625C1.4375 9.53125 3.78125 11.875 6.65625 11.875C9.53125 11.875 11.875 9.53125 11.875 6.65625C11.8437 3.78125 9.5 1.4375 6.65625 1.4375Z" fill="black" fill-opacity="0.7"/>
<path d="M14.7813 15.4375L10.5312 11.2187L11.2188 10.5312L15.4375 14.7812L14.7813 15.4375Z" fill="black" fill-opacity="0.7"/>
</svg>
